<mxfile host="Electron" modified="2024-06-14T00:52:49.811Z" agent="Mozilla/5.0 (Windows NT 10.0; Win64; x64) AppleWebKit/537.36 (KHTML, like Gecko) draw.io/24.5.3 Chrome/124.0.6367.207 Electron/30.0.6 Safari/537.36" etag="m5GFj9nMVr9nfIrPyw3R" version="24.5.3" type="device" pages="3">
  <diagram name="Desenho geral" id="mP7Hzv9P43KcLvLWMITQ">
    <mxGraphModel dx="2954" dy="1204" grid="1" gridSize="10" guides="1" tooltips="1" connect="1" arrows="1" fold="1" page="1" pageScale="1" pageWidth="827" pageHeight="1169" math="0" shadow="0">
      <root>
        <mxCell id="0" />
        <mxCell id="1" parent="0" />
        <mxCell id="-413z_U8tY6g2dAF7jN4-11" value="" style="rounded=0;whiteSpace=wrap;html=1;" vertex="1" parent="1">
          <mxGeometry x="140" y="285" width="600" height="300" as="geometry" />
        </mxCell>
        <mxCell id="-413z_U8tY6g2dAF7jN4-1" value="&lt;font style=&quot;background-color: rgb(255, 255, 255);&quot; color=&quot;#000000&quot;&gt;Cadastro&lt;/font&gt;" style="rounded=1;whiteSpace=wrap;html=1;fillColor=#ededed;" vertex="1" parent="1">
          <mxGeometry x="565" y="380" width="120" height="60" as="geometry" />
        </mxCell>
        <mxCell id="-413z_U8tY6g2dAF7jN4-7" style="edgeStyle=orthogonalEdgeStyle;rounded=0;orthogonalLoop=1;jettySize=auto;html=1;" edge="1" parent="1" source="-413z_U8tY6g2dAF7jN4-3" target="-413z_U8tY6g2dAF7jN4-1">
          <mxGeometry relative="1" as="geometry" />
        </mxCell>
        <mxCell id="-413z_U8tY6g2dAF7jN4-9" value="1." style="edgeLabel;html=1;align=center;verticalAlign=middle;resizable=0;points=[];" vertex="1" connectable="0" parent="-413z_U8tY6g2dAF7jN4-7">
          <mxGeometry x="0.5647" relative="1" as="geometry">
            <mxPoint as="offset" />
          </mxGeometry>
        </mxCell>
        <mxCell id="-413z_U8tY6g2dAF7jN4-8" style="edgeStyle=orthogonalEdgeStyle;rounded=0;orthogonalLoop=1;jettySize=auto;html=1;" edge="1" parent="1" source="-413z_U8tY6g2dAF7jN4-3" target="-413z_U8tY6g2dAF7jN4-4">
          <mxGeometry relative="1" as="geometry" />
        </mxCell>
        <mxCell id="-413z_U8tY6g2dAF7jN4-10" value="2." style="edgeLabel;html=1;align=center;verticalAlign=middle;resizable=0;points=[];" vertex="1" connectable="0" parent="-413z_U8tY6g2dAF7jN4-8">
          <mxGeometry x="0.5882" relative="1" as="geometry">
            <mxPoint as="offset" />
          </mxGeometry>
        </mxCell>
        <mxCell id="-413z_U8tY6g2dAF7jN4-3" value="&lt;font style=&quot;background-color: rgb(255, 255, 255);&quot; color=&quot;#000000&quot;&gt;Pix&lt;/font&gt;" style="rounded=1;whiteSpace=wrap;html=1;fillColor=#ededed;" vertex="1" parent="1">
          <mxGeometry x="335" y="440" width="120" height="60" as="geometry" />
        </mxCell>
        <mxCell id="-413z_U8tY6g2dAF7jN4-4" value="&lt;font style=&quot;background-color: rgb(255, 255, 255);&quot; color=&quot;#000000&quot;&gt;BACEN&lt;/font&gt;" style="rounded=1;whiteSpace=wrap;html=1;fillColor=#ededed;" vertex="1" parent="1">
          <mxGeometry x="565" y="500" width="120" height="60" as="geometry" />
        </mxCell>
        <mxCell id="-413z_U8tY6g2dAF7jN4-6" style="edgeStyle=orthogonalEdgeStyle;rounded=0;orthogonalLoop=1;jettySize=auto;html=1;" edge="1" parent="1" source="-413z_U8tY6g2dAF7jN4-5" target="-413z_U8tY6g2dAF7jN4-3">
          <mxGeometry relative="1" as="geometry" />
        </mxCell>
        <mxCell id="-413z_U8tY6g2dAF7jN4-5" value="Actor" style="shape=umlActor;verticalLabelPosition=bottom;verticalAlign=top;html=1;outlineConnect=0;" vertex="1" parent="1">
          <mxGeometry x="195" y="440" width="30" height="60" as="geometry" />
        </mxCell>
        <mxCell id="-413z_U8tY6g2dAF7jN4-12" value="Desenho geral" style="text;html=1;align=center;verticalAlign=middle;whiteSpace=wrap;rounded=0;" vertex="1" parent="1">
          <mxGeometry x="390" y="285" width="100" height="30" as="geometry" />
        </mxCell>
      </root>
    </mxGraphModel>
  </diagram>
  <diagram id="ib7FIRZwqtDPMtqatYx_" name="Cadastro">
    <mxGraphModel dx="2954" dy="1204" grid="1" gridSize="10" guides="1" tooltips="1" connect="1" arrows="1" fold="1" page="1" pageScale="1" pageWidth="827" pageHeight="1169" math="0" shadow="0">
      <root>
        <mxCell id="0" />
        <mxCell id="1" parent="0" />
        <mxCell id="YDwSbDS3xB0HLyFxqfLf-8" value="" style="rounded=0;whiteSpace=wrap;html=1;" vertex="1" parent="1">
          <mxGeometry x="20" y="265" width="680" height="320" as="geometry" />
        </mxCell>
        <mxCell id="YDwSbDS3xB0HLyFxqfLf-4" style="edgeStyle=orthogonalEdgeStyle;rounded=0;orthogonalLoop=1;jettySize=auto;html=1;" edge="1" parent="1" source="YDwSbDS3xB0HLyFxqfLf-2" target="YDwSbDS3xB0HLyFxqfLf-3">
          <mxGeometry relative="1" as="geometry" />
        </mxCell>
        <mxCell id="YDwSbDS3xB0HLyFxqfLf-2" value="&lt;font color=&quot;#ffffff&quot;&gt;ECS&lt;br&gt;Java 21&lt;br&gt;SpringBoot3&lt;/font&gt;" style="sketch=0;points=[[0,0,0],[0.25,0,0],[0.5,0,0],[0.75,0,0],[1,0,0],[0,1,0],[0.25,1,0],[0.5,1,0],[0.75,1,0],[1,1,0],[0,0.25,0],[0,0.5,0],[0,0.75,0],[1,0.25,0],[1,0.5,0],[1,0.75,0]];outlineConnect=0;fontColor=#232F3E;fillColor=#ED7100;strokeColor=#ffffff;dashed=0;verticalLabelPosition=bottom;verticalAlign=top;align=center;html=1;fontSize=12;fontStyle=0;aspect=fixed;shape=mxgraph.aws4.resourceIcon;resIcon=mxgraph.aws4.ecs;" vertex="1" parent="1">
          <mxGeometry x="310" y="450" width="78" height="78" as="geometry" />
        </mxCell>
        <mxCell id="YDwSbDS3xB0HLyFxqfLf-3" value="&lt;font color=&quot;#ffffff&quot;&gt;DynamoDB&lt;/font&gt;" style="sketch=0;points=[[0,0,0],[0.25,0,0],[0.5,0,0],[0.75,0,0],[1,0,0],[0,1,0],[0.25,1,0],[0.5,1,0],[0.75,1,0],[1,1,0],[0,0.25,0],[0,0.5,0],[0,0.75,0],[1,0.25,0],[1,0.5,0],[1,0.75,0]];outlineConnect=0;fontColor=#232F3E;fillColor=#C925D1;strokeColor=#ffffff;dashed=0;verticalLabelPosition=bottom;verticalAlign=top;align=center;html=1;fontSize=12;fontStyle=0;aspect=fixed;shape=mxgraph.aws4.resourceIcon;resIcon=mxgraph.aws4.dynamodb;" vertex="1" parent="1">
          <mxGeometry x="540" y="450" width="78" height="78" as="geometry" />
        </mxCell>
        <mxCell id="YDwSbDS3xB0HLyFxqfLf-6" style="edgeStyle=orthogonalEdgeStyle;rounded=0;orthogonalLoop=1;jettySize=auto;html=1;" edge="1" parent="1" source="YDwSbDS3xB0HLyFxqfLf-5" target="YDwSbDS3xB0HLyFxqfLf-2">
          <mxGeometry relative="1" as="geometry" />
        </mxCell>
        <mxCell id="YDwSbDS3xB0HLyFxqfLf-7" value="GET by num_doc" style="edgeLabel;html=1;align=center;verticalAlign=middle;resizable=0;points=[];" vertex="1" connectable="0" parent="YDwSbDS3xB0HLyFxqfLf-6">
          <mxGeometry x="-0.24" y="-2" relative="1" as="geometry">
            <mxPoint x="13" y="-2" as="offset" />
          </mxGeometry>
        </mxCell>
        <mxCell id="YDwSbDS3xB0HLyFxqfLf-5" value="Actor" style="shape=umlActor;verticalLabelPosition=bottom;verticalAlign=top;html=1;outlineConnect=0;" vertex="1" parent="1">
          <mxGeometry x="130" y="459" width="30" height="60" as="geometry" />
        </mxCell>
        <mxCell id="YDwSbDS3xB0HLyFxqfLf-9" value="Arquitetura geral&lt;br&gt;Cadastro" style="text;html=1;align=center;verticalAlign=middle;whiteSpace=wrap;rounded=0;" vertex="1" parent="1">
          <mxGeometry x="270" y="270" width="180" height="30" as="geometry" />
        </mxCell>
      </root>
    </mxGraphModel>
  </diagram>
  <diagram id="JTQOtTtvKwksiIR2rQ_f" name="Desenho core">
    <mxGraphModel dx="2954" dy="1204" grid="1" gridSize="10" guides="1" tooltips="1" connect="1" arrows="1" fold="1" page="1" pageScale="1" pageWidth="827" pageHeight="1169" math="0" shadow="0">
      <root>
        <mxCell id="0" />
        <mxCell id="1" parent="0" />
        <mxCell id="Liryh2S8PxJvTkp0xgMs-1" value="" style="rounded=0;whiteSpace=wrap;html=1;" vertex="1" parent="1">
          <mxGeometry x="20" y="265" width="720" height="615" as="geometry" />
        </mxCell>
        <mxCell id="Liryh2S8PxJvTkp0xgMs-2" style="edgeStyle=orthogonalEdgeStyle;rounded=0;orthogonalLoop=1;jettySize=auto;html=1;" edge="1" parent="1" source="Liryh2S8PxJvTkp0xgMs-3" target="Liryh2S8PxJvTkp0xgMs-4">
          <mxGeometry relative="1" as="geometry" />
        </mxCell>
        <mxCell id="Liryh2S8PxJvTkp0xgMs-13" style="edgeStyle=orthogonalEdgeStyle;rounded=0;orthogonalLoop=1;jettySize=auto;html=1;" edge="1" parent="1" source="Liryh2S8PxJvTkp0xgMs-3" target="Liryh2S8PxJvTkp0xgMs-12">
          <mxGeometry relative="1" as="geometry" />
        </mxCell>
        <mxCell id="Liryh2S8PxJvTkp0xgMs-4" value="&lt;font color=&quot;#ffffff&quot;&gt;BD&lt;/font&gt;" style="sketch=0;points=[[0,0,0],[0.25,0,0],[0.5,0,0],[0.75,0,0],[1,0,0],[0,1,0],[0.25,1,0],[0.5,1,0],[0.75,1,0],[1,1,0],[0,0.25,0],[0,0.5,0],[0,0.75,0],[1,0.25,0],[1,0.5,0],[1,0.75,0]];outlineConnect=0;fontColor=#232F3E;fillColor=#C925D1;strokeColor=#ffffff;dashed=0;verticalLabelPosition=bottom;verticalAlign=top;align=center;html=1;fontSize=12;fontStyle=0;aspect=fixed;shape=mxgraph.aws4.resourceIcon;resIcon=mxgraph.aws4.dynamodb;" vertex="1" parent="1">
          <mxGeometry x="590" y="450" width="78" height="78" as="geometry" />
        </mxCell>
        <mxCell id="Liryh2S8PxJvTkp0xgMs-5" style="edgeStyle=orthogonalEdgeStyle;rounded=0;orthogonalLoop=1;jettySize=auto;html=1;" edge="1" parent="1" source="Liryh2S8PxJvTkp0xgMs-7" target="Liryh2S8PxJvTkp0xgMs-3">
          <mxGeometry relative="1" as="geometry" />
        </mxCell>
        <mxCell id="Liryh2S8PxJvTkp0xgMs-6" value="POST" style="edgeLabel;html=1;align=center;verticalAlign=middle;resizable=0;points=[];" vertex="1" connectable="0" parent="Liryh2S8PxJvTkp0xgMs-5">
          <mxGeometry x="-0.24" y="-2" relative="1" as="geometry">
            <mxPoint x="13" y="-2" as="offset" />
          </mxGeometry>
        </mxCell>
        <mxCell id="Liryh2S8PxJvTkp0xgMs-7" value="Actor" style="shape=umlActor;verticalLabelPosition=bottom;verticalAlign=top;html=1;outlineConnect=0;" vertex="1" parent="1">
          <mxGeometry x="80" y="459" width="30" height="60" as="geometry" />
        </mxCell>
        <mxCell id="Liryh2S8PxJvTkp0xgMs-8" value="Arquitetura geral&lt;br&gt;Pix" style="text;html=1;align=center;verticalAlign=middle;whiteSpace=wrap;rounded=0;" vertex="1" parent="1">
          <mxGeometry x="270" y="270" width="180" height="30" as="geometry" />
        </mxCell>
        <mxCell id="Liryh2S8PxJvTkp0xgMs-10" value="&lt;h1 style=&quot;margin-top: 0px;&quot;&gt;Comportamento&lt;/h1&gt;&lt;p&gt;&lt;span style=&quot;font-size: 11px; text-align: center; text-wrap: nowrap; background-color: rgb(24, 20, 29);&quot;&gt;1. Tem saldo?&lt;/span&gt;&lt;/p&gt;&lt;p&gt;&lt;span style=&quot;font-size: 11px; text-align: center; text-wrap: nowrap; background-color: rgb(24, 20, 29);&quot;&gt;2. Ja estourou o limite do dia?&lt;/span&gt;&lt;/p&gt;&lt;p&gt;&lt;span style=&quot;font-size: 11px; text-align: center; text-wrap: nowrap; background-color: rgb(24, 20, 29);&quot;&gt;3. Executa transacao:&lt;br&gt;&lt;span style=&quot;white-space: pre;&quot;&gt;&#x9;&lt;/span&gt;- Subtrai na origem&lt;br&gt;&lt;/span&gt;&lt;/p&gt;&lt;p&gt;&lt;span style=&quot;font-size: 11px; text-align: center; text-wrap: nowrap; background-color: rgb(24, 20, 29);&quot;&gt;&lt;span style=&quot;white-space: pre;&quot;&gt;&#x9;&lt;/span&gt;- Soma no destino&lt;br&gt;&lt;/span&gt;&lt;/p&gt;&lt;p&gt;&lt;span style=&quot;font-size: 11px; text-align: center; text-wrap: nowrap; background-color: rgb(24, 20, 29);&quot;&gt;&lt;span style=&quot;white-space: pre;&quot;&gt;&#x9;&lt;/span&gt;- Adiciona transacao na tabela de extrato&lt;br&gt;&lt;/span&gt;&lt;/p&gt;&lt;p&gt;&lt;span style=&quot;font-size: 11px; text-align: center; text-wrap: nowrap; background-color: rgb(24, 20, 29);&quot;&gt;4. Manda para fila BACEN&lt;/span&gt;&lt;/p&gt;" style="text;html=1;whiteSpace=wrap;overflow=hidden;rounded=0;" vertex="1" parent="1">
          <mxGeometry x="30" y="650" width="260" height="220" as="geometry" />
        </mxCell>
        <mxCell id="08WeXMSkaM9dkI0uW7rU-2" style="edgeStyle=orthogonalEdgeStyle;rounded=0;orthogonalLoop=1;jettySize=auto;html=1;" edge="1" parent="1" source="Liryh2S8PxJvTkp0xgMs-11" target="08WeXMSkaM9dkI0uW7rU-1">
          <mxGeometry relative="1" as="geometry" />
        </mxCell>
        <mxCell id="Liryh2S8PxJvTkp0xgMs-11" value="&lt;font color=&quot;#ffffff&quot;&gt;ECS&lt;br&gt;Java 21&lt;br&gt;SpringBoot3&lt;/font&gt;" style="sketch=0;points=[[0,0,0],[0.25,0,0],[0.5,0,0],[0.75,0,0],[1,0,0],[0,1,0],[0.25,1,0],[0.5,1,0],[0.75,1,0],[1,1,0],[0,0.25,0],[0,0.5,0],[0,0.75,0],[1,0.25,0],[1,0.5,0],[1,0.75,0]];outlineConnect=0;fontColor=#232F3E;fillColor=#ED7100;strokeColor=#ffffff;dashed=0;verticalLabelPosition=bottom;verticalAlign=top;align=center;html=1;fontSize=12;fontStyle=0;aspect=fixed;shape=mxgraph.aws4.resourceIcon;resIcon=mxgraph.aws4.ecs;labelBackgroundColor=default;" vertex="1" parent="1">
          <mxGeometry x="590" y="740" width="78" height="78" as="geometry" />
        </mxCell>
        <mxCell id="Liryh2S8PxJvTkp0xgMs-14" style="edgeStyle=orthogonalEdgeStyle;rounded=0;orthogonalLoop=1;jettySize=auto;html=1;" edge="1" parent="1" source="Liryh2S8PxJvTkp0xgMs-12" target="Liryh2S8PxJvTkp0xgMs-11">
          <mxGeometry relative="1" as="geometry" />
        </mxCell>
        <mxCell id="Liryh2S8PxJvTkp0xgMs-12" value="" style="sketch=0;points=[[0,0,0],[0.25,0,0],[0.5,0,0],[0.75,0,0],[1,0,0],[0,1,0],[0.25,1,0],[0.5,1,0],[0.75,1,0],[1,1,0],[0,0.25,0],[0,0.5,0],[0,0.75,0],[1,0.25,0],[1,0.5,0],[1,0.75,0]];outlineConnect=0;fontColor=#232F3E;fillColor=#E7157B;strokeColor=#ffffff;dashed=0;verticalLabelPosition=bottom;verticalAlign=top;align=center;html=1;fontSize=12;fontStyle=0;aspect=fixed;shape=mxgraph.aws4.resourceIcon;resIcon=mxgraph.aws4.sqs;" vertex="1" parent="1">
          <mxGeometry x="310" y="740" width="78" height="78" as="geometry" />
        </mxCell>
        <mxCell id="08WeXMSkaM9dkI0uW7rU-4" style="edgeStyle=orthogonalEdgeStyle;rounded=0;orthogonalLoop=1;jettySize=auto;html=1;" edge="1" parent="1" source="Liryh2S8PxJvTkp0xgMs-3" target="08WeXMSkaM9dkI0uW7rU-3">
          <mxGeometry relative="1" as="geometry">
            <Array as="points">
              <mxPoint x="349" y="350" />
            </Array>
          </mxGeometry>
        </mxCell>
        <mxCell id="Liryh2S8PxJvTkp0xgMs-3" value="&lt;font color=&quot;#ffffff&quot; style=&quot;&quot;&gt;ECS&lt;br&gt;Java 21&lt;br&gt;SpringBoot3&lt;/font&gt;" style="sketch=0;points=[[0,0,0],[0.25,0,0],[0.5,0,0],[0.75,0,0],[1,0,0],[0,1,0],[0.25,1,0],[0.5,1,0],[0.75,1,0],[1,1,0],[0,0.25,0],[0,0.5,0],[0,0.75,0],[1,0.25,0],[1,0.5,0],[1,0.75,0]];outlineConnect=0;fontColor=#232F3E;fillColor=#ED7100;strokeColor=#ffffff;dashed=0;verticalLabelPosition=bottom;verticalAlign=top;align=center;html=1;fontSize=12;fontStyle=0;aspect=fixed;shape=mxgraph.aws4.resourceIcon;resIcon=mxgraph.aws4.ecs;labelPosition=center;textShadow=0;labelBackgroundColor=default;" vertex="1" parent="1">
          <mxGeometry x="310" y="450" width="78" height="78" as="geometry" />
        </mxCell>
        <mxCell id="08WeXMSkaM9dkI0uW7rU-1" value="&lt;font style=&quot;background-color: rgb(255, 255, 255);&quot; color=&quot;#000000&quot;&gt;BACEN&lt;/font&gt;" style="rounded=1;whiteSpace=wrap;html=1;fillColor=#ededed;" vertex="1" parent="1">
          <mxGeometry x="569" y="600" width="120" height="60" as="geometry" />
        </mxCell>
        <mxCell id="08WeXMSkaM9dkI0uW7rU-3" value="&lt;font style=&quot;background-color: rgb(255, 255, 255);&quot; color=&quot;#000000&quot;&gt;Cadastro&lt;/font&gt;" style="rounded=1;whiteSpace=wrap;html=1;fillColor=#ededed;" vertex="1" parent="1">
          <mxGeometry x="569" y="320" width="120" height="60" as="geometry" />
        </mxCell>
      </root>
    </mxGraphModel>
  </diagram>
</mxfile>
